# xmcd
#
# Track frame offsets: 
#        150
#        19932
#        40671
#        54671
#        75244
#        95337
#        115748
#        134198
#        151387
#        170756
#        184361
#        200253
#        218330
#
# Disc length: 3173 seconds
#
# Revision: 0
# Processed by: cddbd v1.5.2PL0 Copyright (c) Steve Scherf et al.
# Submitted via: ExactAudioCopy v0.99pb4
#
DISCID=ab0c630d
DTITLE=Willie Clayton - The Tribute - One Man, One Voice
DYEAR=2011
DGENRE=Soul
TTITLE0=Still Called The Blues
TTITLE1=Ain't No Party
TTITLE2=Turn Back The Hands Of Time
TTITLE3=I Believe In You
TTITLE4=Mine All Mine Featuring Tyrone Davis
TTITLE5=Be With Me
TTITLE6=Equal Opportunity
TTITLE7=Turning Point
TTITLE8=Move To Soon
TTITLE9=A Woman Was Made To Be Loved
TTITLE10=Without You In My Life
TTITLE11=Careless
TTITLE12=Candy Licker
EXTD=
EXTT0=
EXTT1=
EXTT2=
EXTT3=
EXTT4=
EXTT5=
EXTT6=
EXTT7=
EXTT8=
EXTT9=
EXTT10=
EXTT11=
EXTT12=
PLAYORDER=
